<?xml version="1.0" encoding="UTF-8"?>
<svg height="128px" viewBox="0 0 128 128" width="128px" xmlns="http://www.w3.org/2000/svg" xmlns:xlink="http://www.w3.org/1999/xlink">
    <linearGradient id="a" gradientTransform="matrix(0.188716 0 0 0.108002 -658.225464 389.830627)" gradientUnits="userSpaceOnUse" x1="301" x2="104" y1="33.559235" y2="33.559235">
        <stop offset="0" stop-color="#f9f06b"/>
        <stop offset="1" stop-color="#f9f06b" stop-opacity="0"/>
    </linearGradient>
    <clipPath id="b">
        <path d="m 98 83 h 22 v 23 h -22 z m 0 0"/>
    </clipPath>
    <clipPath id="c">
        <path d="m 119.214844 83.871094 l -20.300782 21.167968 h -5.796874 v -27.214843 h 26.097656 z m 0 0"/>
    </clipPath>
    <symbol id="d" overflow="visible">
        <path d="m 0.65625 -11.21875 h 4.171875 v 11.21875 h 2.828125 v -11.21875 h 4.15625 v -2.359375 h -11.15625 z m 0 0"/>
    </symbol>
    <symbol id="e" overflow="visible">
        <path d="m 1.125 0 h 2.828125 v -5.765625 c 0 -1.25 0.90625 -2.109375 2.15625 -2.109375 c 0.390625 0 0.9375 0.0625 1.203125 0.15625 v -2.515625 c -0.25 -0.0625 -0.609375 -0.09375 -0.890625 -0.09375 c -1.140625 0 -2.078125 0.65625 -2.453125 1.921875 h -0.109375 v -1.78125 h -2.734375 z m 0 0"/>
    </symbol>
    <symbol id="f" overflow="visible">
        <path d="m 2.546875 -11.5 c 0.84375 0 1.53125 -0.640625 1.53125 -1.4375 c 0 -0.78125 -0.6875 -1.421875 -1.53125 -1.421875 s -1.53125 0.640625 -1.53125 1.421875 c 0 0.796875 0.6875 1.4375 1.53125 1.4375 z m -1.421875 11.5 h 2.828125 v -10.1875 h -2.828125 z m 0 0"/>
    </symbol>
    <symbol id="g" overflow="visible">
        <path d="m 1.125 0 h 2.828125 v -6.109375 c 0 -1.125 0.71875 -1.875 1.65625 -1.875 c 0.921875 0 1.546875 0.625 1.546875 1.625 v 6.359375 h 2.75 v -6.21875 c 0 -1.0625 0.59375 -1.765625 1.625 -1.765625 c 0.90625 0 1.578125 0.5625 1.578125 1.6875 v 6.296875 h 2.8125 v -6.84375 c 0 -2.21875 -1.3125 -3.46875 -3.203125 -3.46875 c -1.5 0 -2.65625 0.75 -3.078125 1.921875 h -0.09375 c -0.328125 -1.171875 -1.375 -1.921875 -2.765625 -1.921875 c -1.375 0 -2.421875 0.71875 -2.84375 1.921875 h -0.125 v -1.796875 h -2.6875 z m 0 0"/>
    </symbol>
    <symbol id="h" overflow="visible">
        <path d="m 8.5 -17.453125 v 12.171875 c 0 1.671875 -0.75 2.5625 -2.109375 2.5625 c -1.296875 0 -2.125 -0.796875 -2.15625 -2.1875 h -3.671875 c -0.015625 3.484375 2.46875 5.140625 5.640625 5.140625 c 3.53125 0 5.9375 -2.140625 5.953125 -5.515625 v -12.171875 z m 0 0"/>
    </symbol>
    <symbol id="i" overflow="visible">
        <path d="m 7.359375 0.25 c 3.96875 0 6.453125 -2.71875 6.453125 -6.75 c 0 -4.046875 -2.484375 -6.765625 -6.453125 -6.765625 s -6.4375 2.71875 -6.4375 6.765625 c 0 4.03125 2.46875 6.75 6.4375 6.75 z m 0.015625 -2.8125 c -1.828125 0 -2.765625 -1.671875 -2.765625 -3.953125 s 0.9375 -3.96875 2.765625 -3.96875 c 1.796875 0 2.734375 1.6875 2.734375 3.96875 s -0.9375 3.953125 -2.734375 3.953125 z m 0 0"/>
    </symbol>
    <symbol id="j" overflow="visible">
        <path d="m 9.84375 -5.578125 c 0.015625 1.765625 -1.1875 2.6875 -2.5 2.6875 c -1.375 0 -2.25 -0.96875 -2.265625 -2.515625 v -7.6875 h -3.625 v 8.34375 c 0 3.046875 1.796875 4.921875 4.421875 4.921875 c 1.96875 0 3.390625 -1.015625 3.984375 -2.546875 h 0.125 v 2.375 h 3.484375 v -13.09375 h -3.625 z m 0 0"/>
    </symbol>
    <symbol id="k" overflow="visible">
        <path d="m 1.453125 0 h 3.625 v -7.40625 c 0 -1.609375 1.171875 -2.71875 2.78125 -2.71875 c 0.5 0 1.1875 0.078125 1.53125 0.203125 v -3.234375 c -0.328125 -0.078125 -0.78125 -0.125 -1.140625 -0.125 c -1.46875 0 -2.671875 0.859375 -3.140625 2.46875 h -0.140625 v -2.28125 h -3.515625 z m 0 0"/>
    </symbol>
    <symbol id="l" overflow="visible">
        <path d="m 5.078125 -7.5625 c 0.015625 -1.6875 1.015625 -2.6875 2.484375 -2.6875 c 1.453125 0 2.328125 0.953125 2.328125 2.5625 v 7.6875 h 3.625 v -8.328125 c 0 -3.0625 -1.78125 -4.9375 -4.515625 -4.9375 c -1.9375 0 -3.34375 0.953125 -3.9375 2.484375 h -0.15625 v -2.3125 h -3.453125 v 13.09375 h 3.625 z m 0 0"/>
    </symbol>
    <symbol id="m" overflow="visible">
        <path d="m 5.1875 0.25 c 1.921875 0 3.1875 -0.84375 3.828125 -2.0625 h 0.09375 v 1.8125 h 3.4375 v -8.828125 c 0 -3.125 -2.640625 -4.4375 -5.546875 -4.4375 c -3.140625 0 -5.203125 1.5 -5.703125 3.890625 l 3.359375 0.265625 c 0.25 -0.859375 1.015625 -1.5 2.328125 -1.5 c 1.234375 0 1.9375 0.625 1.9375 1.6875 v 0.0625 c 0 0.84375 -0.890625 0.953125 -3.171875 1.171875 c -2.59375 0.234375 -4.921875 1.109375 -4.921875 4.03125 c 0 2.59375 1.859375 3.90625 4.359375 3.90625 z m 1.03125 -2.515625 c -1.109375 0 -1.921875 -0.515625 -1.921875 -1.515625 c 0 -1.015625 0.84375 -1.515625 2.125 -1.703125 c 0.796875 -0.109375 2.09375 -0.296875 2.53125 -0.578125 v 1.390625 c 0 1.359375 -1.140625 2.40625 -2.734375 2.40625 z m 0 0"/>
    </symbol>
    <symbol id="n" overflow="visible">
        <path d="m 5.078125 -17.453125 h -3.625 v 17.453125 h 3.625 z m 0 0"/>
    </symbol>
    <path d="m 111.164062 106.941406 h -88 c -4.417968 0 -8 -3.582031 -8 -8 v -80 c 0 -4.417968 3.582032 -8 8 -8 h 88 c 4.417969 0 8 3.582032 8 8 v 80 c 0 4.417969 -3.582031 8 -8 8 z m 0 0" fill="#e29ffc"/>
    <g fill="#7a36b1">
        <use x="20.035156" xlink:href="#d" y="31.279297"/>
        <use x="31.449219" xlink:href="#e" y="31.279297"/>
        <use x="39.078125" xlink:href="#f" y="31.279297"/>
        <use x="44.155273" xlink:href="#g" y="31.279297"/>
        <use x="61.177734" xlink:href="#f" y="31.279297"/>
        <use x="66.254883" xlink:href="#e" y="31.279297"/>
    </g>
    <g fill="#7a36b1">
        <use x="20.035156" xlink:href="#h" y="56.625"/>
        <use x="33.713867" xlink:href="#i" y="56.625"/>
        <use x="48.44043" xlink:href="#j" y="56.625"/>
        <use x="63.363281" xlink:href="#k" y="56.625"/>
        <use x="73.172852" xlink:href="#l" y="56.625"/>
        <use x="88.095703" xlink:href="#m" y="56.625"/>
        <use x="102.021484" xlink:href="#n" y="56.625"/>
    </g>
    <path d="m -644.639893 395.447647 h 19.628907 l 7.546875 -9.9375 l 4.53125 16.847656 l 6.039062 -6.910156 h 4.527344" fill="none" stroke="url(#a)" stroke-linecap="round" stroke-miterlimit="10" stroke-width="2.28423" transform="matrix(1 0 0 1 708.327393 -365.416397)"/>
    <path d="m 22.175781 110.683594 c -0.210937 -0.070313 -0.855469 -0.234375 -1.433593 -0.359375 c -1.382813 -0.304688 -4.046876 -2.738281 -4.695313 -4.28125 c -0.28125 -0.667969 -0.507813 -2.164063 -0.507813 -3.316407 v -2.097656 l 1.800782 1.859375 c 1.21875 1.261719 2.3125 1.996094 3.378906 2.28125 c 1.125 0.300781 14.710938 0.390625 47.222656 0.320313 l 45.640625 -0.101563 l 1.78125 -1.046875 c 1.035157 -0.605468 2.203125 -1.726562 2.78125 -2.65625 l 0.996094 -1.605468 l -0.167969 2.722656 c -0.214844 3.503906 -1.441406 5.730468 -3.980468 7.222656 l -1.789063 1.054688 l -45.324219 0.066406 c -24.929687 0.039062 -45.496094 0.011718 -45.703125 -0.0625 z m 0 0" fill="#ad65d6"/>
    <g clip-path="url(#b)">
        <g clip-path="url(#c)">
            <path d="m 98.914062 89.917969 v 15.121093 c 0 3.339844 2.597657 6.046876 5.800782 6.046876 h 14.5 c 3.203125 0 5.796875 -2.707032 5.796875 -6.046876 v -15.121093 c 0 -3.339844 -2.59375 -6.046875 -5.796875 -6.046875 h -14.5 c -3.203125 0 -5.800782 2.707031 -5.800782 6.046875 z m 0 0" fill="#7a36b1"/>
        </g>
    </g>
    <path d="m 22.132812 94.863281 c 0 1.105469 -0.894531 2 -2 2 c -1.101562 0 -2 -0.894531 -2 -2 s 0.898438 -2 2 -2 c 1.105469 0 2 0.894531 2 2 z m 0 0" fill="#ebbdc6"/>
    <path d="m 22.132812 84.863281 c 0 1.105469 -0.894531 2 -2 2 c -1.101562 0 -2 -0.894531 -2 -2 s 0.898438 -2 2 -2 c 1.105469 0 2 0.894531 2 2 z m 0 0" fill="#ebbdc6"/>
    <path d="m 22.132812 74.863281 c 0 1.105469 -0.894531 2 -2 2 c -1.101562 0 -2 -0.894531 -2 -2 s 0.898438 -2 2 -2 c 1.105469 0 2 0.894531 2 2 z m 0 0" fill="#ebbdc6"/>
    <path d="m 22.132812 64.863281 c 0 1.105469 -0.894531 2 -2 2 c -1.101562 0 -2 -0.894531 -2 -2 s 0.898438 -2 2 -2 c 1.105469 0 2 0.894531 2 2 z m 0 0" fill="#ebbdc6"/>
    <g fill="#7a36b1">
        <path d="m 24.277344 94.824219 v -0.914063 h 79.210937 v 1.828125 h -79.210937 z m 0 0"/>
        <path d="m 24.277344 84.886719 v -0.914063 h 79.726562 v 1.828125 h -79.726562 z m 0 0"/>
        <path d="m 24.273438 74.824219 v -0.914063 h 79.726562 v 1.828125 h -79.726562 z m 0 0"/>
        <path d="m 24.273438 64.914062 v -0.914062 h 79.726562 v 1.828125 h -79.726562 z m 0 0"/>
        <path d="m 19.445312 66.625 c -1.03125 -0.464844 -1.488281 -1.566406 -1.03125 -2.488281 c 0.382813 -0.765625 0.960938 -1.15625 1.710938 -1.15625 c 2.359375 0 2.570312 3.367187 0.238281 3.777343 c -0.246093 0.042969 -0.660156 -0.019531 -0.917969 -0.132812 z m 0 0"/>
        <path d="m 19.242188 76.550781 c -1.429688 -0.734375 -1.285157 -2.96875 0.226562 -3.46875 c 1.542969 -0.511719 2.960938 0.882813 2.457031 2.414063 c -0.335937 1.019531 -1.703125 1.558594 -2.683593 1.054687 z m 0 0"/>
        <path d="m 19.234375 86.527344 c -1.171875 -0.628906 -1.355469 -2.058594 -0.390625 -3.027344 c 0.441406 -0.4375 0.609375 -0.503906 1.273438 -0.503906 c 0.597656 0 0.867187 0.082031 1.230468 0.390625 c 1.347656 1.136719 0.511719 3.417969 -1.253906 3.417969 c -0.183594 0 -0.570312 -0.125 -0.859375 -0.277344 z m 0 0"/>
        <path d="m 18.945312 96.328125 c -0.539062 -0.453125 -0.847656 -1.265625 -0.710937 -1.878906 c 0.132813 -0.605469 0.921875 -1.363281 1.542969 -1.480469 c 1.34375 -0.253906 2.550781 1.097656 2.179687 2.4375 c -0.34375 1.25 -2.015625 1.761719 -3.011719 0.921875 z m 0 0"/>
    </g>
</svg>
