<?xml version="1.0" encoding="UTF-8" standalone="no"?>
<svg
   height="16"
   width="16"
   version="1.1"
   id="svg114"
   sodipodi:docname="16.svg"
   inkscape:version="1.1 (c68e22c387, 2021-05-23)"
   xmlns:inkscape="http://www.inkscape.org/namespaces/inkscape"
   xmlns:sodipodi="http://sodipodi.sourceforge.net/DTD/sodipodi-0.dtd"
   xmlns:xlink="http://www.w3.org/1999/xlink"
   xmlns="http://www.w3.org/2000/svg"
   xmlns:svg="http://www.w3.org/2000/svg">
  <defs
     id="defs118" />
  <sodipodi:namedview
     id="namedview116"
     pagecolor="#ffffff"
     bordercolor="#666666"
     borderopacity="1.0"
     inkscape:pageshadow="2"
     inkscape:pageopacity="0.0"
     inkscape:pagecheckerboard="0"
     showgrid="false"
     inkscape:zoom="6.5234375"
     inkscape:cx="20.00479"
     inkscape:cy="64.076647"
     inkscape:window-width="1920"
     inkscape:window-height="1019"
     inkscape:window-x="0"
     inkscape:window-y="30"
     inkscape:window-maximized="1"
     inkscape:current-layer="svg114" />
  <linearGradient
     id="a"
     gradientTransform="matrix(0.02901906,0,0,0.01731105,64.561886,55.012119)"
     gradientUnits="userSpaceOnUse"
     x1="301"
     x2="104"
     y1="33.559235"
     y2="33.559235">
    <stop
       offset="0"
       stop-color="#f9f06b"
       id="stop2" />
    <stop
       offset="1"
       stop-color="#f9f06b"
       stop-opacity="0"
       id="stop4" />
  </linearGradient>
  <clipPath
     id="b">
    <path
       d="m 98 83 h 22 v 23 h -22 z m 0 0"
       id="path7" />
  </clipPath>
  <clipPath
     id="c">
    <path
       d="m 119.214844 83.871094 l -20.300782 21.167968 h -5.796874 v -27.214843 h 26.097656 z m 0 0"
       id="path10" />
  </clipPath>
  <symbol
     id="d"
     overflow="visible">
    <path
       d="m 0.65625 -11.21875 h 4.171875 v 11.21875 h 2.828125 v -11.21875 h 4.15625 v -2.359375 h -11.15625 z m 0 0"
       id="path13" />
  </symbol>
  <symbol
     id="e"
     overflow="visible">
    <path
       d="m 1.125 0 h 2.828125 v -5.765625 c 0 -1.25 0.90625 -2.109375 2.15625 -2.109375 c 0.390625 0 0.9375 0.0625 1.203125 0.15625 v -2.515625 c -0.25 -0.0625 -0.609375 -0.09375 -0.890625 -0.09375 c -1.140625 0 -2.078125 0.65625 -2.453125 1.921875 h -0.109375 v -1.78125 h -2.734375 z m 0 0"
       id="path16" />
  </symbol>
  <symbol
     id="f"
     overflow="visible">
    <path
       d="m 2.546875 -11.5 c 0.84375 0 1.53125 -0.640625 1.53125 -1.4375 c 0 -0.78125 -0.6875 -1.421875 -1.53125 -1.421875 s -1.53125 0.640625 -1.53125 1.421875 c 0 0.796875 0.6875 1.4375 1.53125 1.4375 z m -1.421875 11.5 h 2.828125 v -10.1875 h -2.828125 z m 0 0"
       id="path19" />
  </symbol>
  <symbol
     id="g"
     overflow="visible">
    <path
       d="m 1.125 0 h 2.828125 v -6.109375 c 0 -1.125 0.71875 -1.875 1.65625 -1.875 c 0.921875 0 1.546875 0.625 1.546875 1.625 v 6.359375 h 2.75 v -6.21875 c 0 -1.0625 0.59375 -1.765625 1.625 -1.765625 c 0.90625 0 1.578125 0.5625 1.578125 1.6875 v 6.296875 h 2.8125 v -6.84375 c 0 -2.21875 -1.3125 -3.46875 -3.203125 -3.46875 c -1.5 0 -2.65625 0.75 -3.078125 1.921875 h -0.09375 c -0.328125 -1.171875 -1.375 -1.921875 -2.765625 -1.921875 c -1.375 0 -2.421875 0.71875 -2.84375 1.921875 h -0.125 v -1.796875 h -2.6875 z m 0 0"
       id="path22" />
  </symbol>
  <symbol
     id="h"
     overflow="visible">
    <path
       d="m 8.5 -17.453125 v 12.171875 c 0 1.671875 -0.75 2.5625 -2.109375 2.5625 c -1.296875 0 -2.125 -0.796875 -2.15625 -2.1875 h -3.671875 c -0.015625 3.484375 2.46875 5.140625 5.640625 5.140625 c 3.53125 0 5.9375 -2.140625 5.953125 -5.515625 v -12.171875 z m 0 0"
       id="path25" />
  </symbol>
  <symbol
     id="i"
     overflow="visible">
    <path
       d="m 7.359375 0.25 c 3.96875 0 6.453125 -2.71875 6.453125 -6.75 c 0 -4.046875 -2.484375 -6.765625 -6.453125 -6.765625 s -6.4375 2.71875 -6.4375 6.765625 c 0 4.03125 2.46875 6.75 6.4375 6.75 z m 0.015625 -2.8125 c -1.828125 0 -2.765625 -1.671875 -2.765625 -3.953125 s 0.9375 -3.96875 2.765625 -3.96875 c 1.796875 0 2.734375 1.6875 2.734375 3.96875 s -0.9375 3.953125 -2.734375 3.953125 z m 0 0"
       id="path28" />
  </symbol>
  <symbol
     id="j"
     overflow="visible">
    <path
       d="m 9.84375 -5.578125 c 0.015625 1.765625 -1.1875 2.6875 -2.5 2.6875 c -1.375 0 -2.25 -0.96875 -2.265625 -2.515625 v -7.6875 h -3.625 v 8.34375 c 0 3.046875 1.796875 4.921875 4.421875 4.921875 c 1.96875 0 3.390625 -1.015625 3.984375 -2.546875 h 0.125 v 2.375 h 3.484375 v -13.09375 h -3.625 z m 0 0"
       id="path31" />
  </symbol>
  <symbol
     id="k"
     overflow="visible">
    <path
       d="m 1.453125 0 h 3.625 v -7.40625 c 0 -1.609375 1.171875 -2.71875 2.78125 -2.71875 c 0.5 0 1.1875 0.078125 1.53125 0.203125 v -3.234375 c -0.328125 -0.078125 -0.78125 -0.125 -1.140625 -0.125 c -1.46875 0 -2.671875 0.859375 -3.140625 2.46875 h -0.140625 v -2.28125 h -3.515625 z m 0 0"
       id="path34" />
  </symbol>
  <symbol
     id="l"
     overflow="visible">
    <path
       d="m 5.078125 -7.5625 c 0.015625 -1.6875 1.015625 -2.6875 2.484375 -2.6875 c 1.453125 0 2.328125 0.953125 2.328125 2.5625 v 7.6875 h 3.625 v -8.328125 c 0 -3.0625 -1.78125 -4.9375 -4.515625 -4.9375 c -1.9375 0 -3.34375 0.953125 -3.9375 2.484375 h -0.15625 v -2.3125 h -3.453125 v 13.09375 h 3.625 z m 0 0"
       id="path37" />
  </symbol>
  <symbol
     id="m"
     overflow="visible">
    <path
       d="m 5.1875 0.25 c 1.921875 0 3.1875 -0.84375 3.828125 -2.0625 h 0.09375 v 1.8125 h 3.4375 v -8.828125 c 0 -3.125 -2.640625 -4.4375 -5.546875 -4.4375 c -3.140625 0 -5.203125 1.5 -5.703125 3.890625 l 3.359375 0.265625 c 0.25 -0.859375 1.015625 -1.5 2.328125 -1.5 c 1.234375 0 1.9375 0.625 1.9375 1.6875 v 0.0625 c 0 0.84375 -0.890625 0.953125 -3.171875 1.171875 c -2.59375 0.234375 -4.921875 1.109375 -4.921875 4.03125 c 0 2.59375 1.859375 3.90625 4.359375 3.90625 z m 1.03125 -2.515625 c -1.109375 0 -1.921875 -0.515625 -1.921875 -1.515625 c 0 -1.015625 0.84375 -1.515625 2.125 -1.703125 c 0.796875 -0.109375 2.09375 -0.296875 2.53125 -0.578125 v 1.390625 c 0 1.359375 -1.140625 2.40625 -2.734375 2.40625 z m 0 0"
       id="path40" />
  </symbol>
  <symbol
     id="n"
     overflow="visible">
    <path
       d="m 5.078125 -17.453125 h -3.625 v 17.453125 h 3.625 z m 0 0"
       id="path43" />
  </symbol>
  <path
     d="M 73.951476,68.239951 H 60.419621 c -0.679355,0 -1.230168,-0.574145 -1.230168,-1.282277 V 54.134911 c 0,-0.708132 0.550813,-1.282277 1.230168,-1.282277 h 13.531855 c 0.679356,0 1.230168,0.574145 1.230168,1.282277 v 12.822763 c 0,0.708132 -0.550812,1.282277 -1.230168,1.282277 z m 0,0"
     fill="#e29ffc"
     id="path46"
     style="stroke-width:0.156994" />
  <g
     fill="#7a36b1"
     id="g60"
     transform="matrix(0.15377107,0,0,0.16028455,56.857659,51.098896)">
    <use
       x="20.035156"
       xlink:href="#d"
       y="31.279297"
       id="use48"
       width="100%"
       height="100%" />
    <use
       x="31.449219"
       xlink:href="#e"
       y="31.279297"
       id="use50"
       width="100%"
       height="100%" />
    <use
       x="39.078125"
       xlink:href="#f"
       y="31.279297"
       id="use52"
       width="100%"
       height="100%" />
    <use
       x="44.155273"
       xlink:href="#g"
       y="31.279297"
       id="use54"
       width="100%"
       height="100%" />
    <use
       x="61.177734"
       xlink:href="#f"
       y="31.279297"
       id="use56"
       width="100%"
       height="100%" />
    <use
       x="66.254883"
       xlink:href="#e"
       y="31.279297"
       id="use58"
       width="100%"
       height="100%" />
  </g>
  <g
     fill="#7a36b1"
     id="g76"
     transform="matrix(0.15377107,0,0,0.16028455,56.857659,51.098896)">
    <use
       x="20.035156"
       xlink:href="#h"
       y="56.625"
       id="use62"
       width="100%"
       height="100%" />
    <use
       x="33.713867"
       xlink:href="#i"
       y="56.625"
       id="use64"
       width="100%"
       height="100%" />
    <use
       x="48.44043"
       xlink:href="#j"
       y="56.625"
       id="use66"
       width="100%"
       height="100%" />
    <use
       x="63.363281"
       xlink:href="#k"
       y="56.625"
       id="use68"
       width="100%"
       height="100%" />
    <use
       x="73.172852"
       xlink:href="#l"
       y="56.625"
       id="use70"
       width="100%"
       height="100%" />
    <use
       x="88.095703"
       xlink:href="#m"
       y="56.625"
       id="use72"
       width="100%"
       height="100%" />
    <use
       x="102.02148"
       xlink:href="#n"
       y="56.625"
       id="use74"
       width="100%"
       height="100%" />
  </g>
  <path
     d="m 66.650954,55.912441 h 3.018358 l 1.160491,-1.592828 0.696775,2.700419 0.928633,-1.107591 h 0.696175"
     fill="none"
     stroke="url(#a)"
     stroke-linecap="round"
     stroke-miterlimit="10"
     stroke-width="0.35861"
     id="path78"
     style="stroke:url(#a)" />
  <path
     d="m 60.267652,68.839765 c -0.03243,-0.01127 -0.131546,-0.03757 -0.220445,-0.0576 -0.212636,-0.04884 -0.622292,-0.438904 -0.722003,-0.686218 -0.04325,-0.107065 -0.07809,-0.346866 -0.07809,-0.531569 v -0.336222 l 0.276908,0.29803 c 0.187408,0.202234 0.355596,0.319943 0.519578,0.365649 0.172992,0.04821 2.262117,0.06261 7.261479,0.05134 l 7.018207,-0.01628 0.273905,-0.167798 c 0.159177,-0.09705 0.338777,-0.276741 0.427676,-0.425755 l 0.15317,-0.257332 -0.02583,0.4364 c -0.03303,0.561621 -0.221647,0.918505 -0.612081,1.157679 l -0.275107,0.169051 -6.969553,0.01065 c -3.833465,0.0063 -6.995983,0.0019 -7.027819,-0.01002 z m 0,0"
     fill="#ad65d6"
     id="path80"
     style="stroke-width:0.156994" />
  <g
     clip-path="url(#b)"
     id="g86"
     transform="matrix(0.15377107,0,0,0.16028455,56.857659,51.098896)">
    <g
       clip-path="url(#c)"
       id="g84">
      <path
         d="m 98.914062,89.917969 v 15.121091 c 0,3.33985 2.597658,6.04688 5.800778,6.04688 h 14.5 c 3.20313,0 5.79688,-2.70703 5.79688,-6.04688 V 89.917969 c 0,-3.339844 -2.59375,-6.046875 -5.79688,-6.046875 h -14.5 c -3.20312,0 -5.800778,2.707031 -5.800778,6.046875 z m 0,0"
         fill="#7a36b1"
         id="path82" />
    </g>
  </g>
  <path
     d="m 60.261045,66.304014 c 0,0.177189 -0.137553,0.320569 -0.307542,0.320569 -0.169388,0 -0.307542,-0.14338 -0.307542,-0.320569 0,-0.17719 0.138154,-0.320569 0.307542,-0.320569 0.169989,0 0.307542,0.143379 0.307542,0.320569 z m 0,0"
     fill="#ebbdc6"
     id="path88"
     style="stroke-width:0.156994" />
  <path
     d="m 60.261045,64.701168 c 0,0.17719 -0.137553,0.32057 -0.307542,0.32057 -0.169388,0 -0.307542,-0.14338 -0.307542,-0.32057 0,-0.177189 0.138154,-0.320569 0.307542,-0.320569 0.169989,0 0.307542,0.14338 0.307542,0.320569 z m 0,0"
     fill="#ebbdc6"
     id="path90"
     style="stroke-width:0.156994" />
  <path
     d="m 60.261045,63.098323 c 0,0.17719 -0.137553,0.320569 -0.307542,0.320569 -0.169388,0 -0.307542,-0.143379 -0.307542,-0.320569 0,-0.177189 0.138154,-0.320569 0.307542,-0.320569 0.169989,0 0.307542,0.14338 0.307542,0.320569 z m 0,0"
     fill="#ebbdc6"
     id="path92"
     style="stroke-width:0.156994" />
  <path
     d="m 60.261045,61.495477 c 0,0.17719 -0.137553,0.320569 -0.307542,0.320569 -0.169388,0 -0.307542,-0.143379 -0.307542,-0.320569 0,-0.177189 0.138154,-0.320569 0.307542,-0.320569 0.169989,0 0.307542,0.14338 0.307542,0.320569 z m 0,0"
     fill="#ebbdc6"
     id="path94"
     style="stroke-width:0.156994" />
  <g
     fill="#7a36b1"
     id="g112"
     transform="matrix(0.15377107,0,0,0.16028455,56.857659,51.098896)">
    <path
       d="m 24.277344,94.824219 v -0.914063 h 79.210936 v 1.828125 H 24.277344 Z m 0,0"
       id="path96" />
    <path
       d="m 24.277344,84.886719 v -0.914063 h 79.726566 v 1.828125 H 24.277344 Z m 0,0"
       id="path98" />
    <path
       d="M 24.273438,74.824219 V 73.910156 H 104 v 1.828125 H 24.273438 Z m 0,0"
       id="path100" />
    <path
       d="M 24.273438,64.914062 V 64 H 104 v 1.828125 H 24.273438 Z m 0,0"
       id="path102" />
    <path
       d="m 19.445312,66.625 c -1.03125,-0.464844 -1.488281,-1.566406 -1.03125,-2.488281 0.382813,-0.765625 0.960938,-1.15625 1.710938,-1.15625 2.359375,0 2.570312,3.367187 0.238281,3.777343 -0.246093,0.04297 -0.660156,-0.01953 -0.917969,-0.132812 z m 0,0"
       id="path104" />
    <path
       d="m 19.242188,76.550781 c -1.429688,-0.734375 -1.285157,-2.96875 0.226562,-3.46875 1.542969,-0.511719 2.960938,0.882813 2.457031,2.414063 -0.335937,1.019531 -1.703125,1.558594 -2.683593,1.054687 z m 0,0"
       id="path106" />
    <path
       d="M 19.234375,86.527344 C 18.0625,85.898438 17.878906,84.46875 18.84375,83.5 c 0.441406,-0.4375 0.609375,-0.503906 1.273438,-0.503906 0.597656,0 0.867187,0.08203 1.230468,0.390625 1.347656,1.136719 0.511719,3.417969 -1.253906,3.417969 -0.183594,0 -0.570312,-0.125 -0.859375,-0.277344 z m 0,0"
       id="path108" />
    <path
       d="M 18.945312,96.328125 C 18.40625,95.875 18.097656,95.0625 18.234375,94.449219 c 0.132813,-0.605469 0.921875,-1.363281 1.542969,-1.480469 1.34375,-0.253906 2.550781,1.097656 2.179687,2.4375 -0.34375,1.25 -2.015625,1.761719 -3.011719,0.921875 z m 0,0"
       id="path110" />
  </g>
</svg>
