<?xml version="1.0" encoding="UTF-8" standalone="no"?>
<svg
   version="1.1"
   width="16"
   height="16"
   id="svg4372"
   sodipodi:docname="16.svg"
   inkscape:version="1.1 (c68e22c387, 2021-05-23)"
   xmlns:inkscape="http://www.inkscape.org/namespaces/inkscape"
   xmlns:sodipodi="http://sodipodi.sourceforge.net/DTD/sodipodi-0.dtd"
   xmlns:xlink="http://www.w3.org/1999/xlink"
   xmlns="http://www.w3.org/2000/svg"
   xmlns:svg="http://www.w3.org/2000/svg"
   xmlns:rdf="http://www.w3.org/1999/02/22-rdf-syntax-ns#"
   xmlns:cc="http://creativecommons.org/ns#"
   xmlns:dc="http://purl.org/dc/elements/1.1/">
  <sodipodi:namedview
     pagecolor="#ffffff"
     bordercolor="#666666"
     borderopacity="1"
     objecttolerance="10"
     gridtolerance="10"
     guidetolerance="10"
     inkscape:pageopacity="0"
     inkscape:pageshadow="2"
     inkscape:window-width="1920"
     inkscape:window-height="1019"
     id="namedview23"
     showgrid="true"
     inkscape:zoom="22.231437"
     inkscape:cx="7.9841892"
     inkscape:cy="7.9167172"
     inkscape:window-x="0"
     inkscape:window-y="30"
     inkscape:window-maximized="1"
     inkscape:current-layer="svg4372"
     inkscape:document-rotation="0"
     inkscape:pagecheckerboard="0">
    <inkscape:grid
       type="xygrid"
       id="grid843"
       empspacing="4" />
    <inkscape:grid
       type="xygrid"
       id="grid845"
       empspacing="2"
       spacingy="0.5"
       spacingx="0.5"
       dotted="true" />
  </sodipodi:namedview>
  <defs
     id="defs4374">
    <linearGradient
       id="linearGradient877">
      <stop
         id="stop869"
         style="stop-color:#667885;stop-opacity:1"
         offset="0" />
      <stop
         id="stop875"
         style="stop-color:#485a6c;stop-opacity:1"
         offset="1" />
    </linearGradient>
    <linearGradient
       x1="23.99999"
       y1="4.999989"
       x2="23.99999"
       y2="43"
       id="linearGradient3304"
       xlink:href="#linearGradient3924-4-8"
       gradientUnits="userSpaceOnUse"
       gradientTransform="matrix(0.2972973,0,0,0.2972973,0.86486906,0.8648672)" />
    <linearGradient
       id="linearGradient3924-4-8">
      <stop
         id="stop3926-0-4"
         style="stop-color:#ffffff;stop-opacity:1"
         offset="0" />
      <stop
         id="stop3928-6-8"
         style="stop-color:#ffffff;stop-opacity:0.23529412"
         offset="0.06316455" />
      <stop
         id="stop3930-2-1"
         style="stop-color:#ffffff;stop-opacity:0.15686275"
         offset="0.95056331" />
      <stop
         id="stop3932-9-0"
         style="stop-color:#ffffff;stop-opacity:0.39215687"
         offset="1" />
    </linearGradient>
    <linearGradient
       xlink:href="#linearGradient877"
       id="linearGradient867"
       x1="7.9050331"
       y1="1.5559154"
       x2="7.9050331"
       y2="14.459918"
       gradientUnits="userSpaceOnUse" />
    <linearGradient
       id="linearGradient1879"
       inkscape:collect="always">
      <stop
         id="stop1873"
         offset="0"
         style="stop-color:#e8e7e4;stop-opacity:1" />
      <stop
         style="stop-color:#ffffff;stop-opacity:1"
         offset="0.51104856"
         id="stop1875" />
      <stop
         id="stop1877"
         offset="1"
         style="stop-color:#c2bfba;stop-opacity:1" />
    </linearGradient>
    <linearGradient
       id="linearGradient985"
       inkscape:collect="always">
      <stop
         id="stop981"
         offset="0"
         style="stop-color:#f9f06b;stop-opacity:1" />
      <stop
         id="stop983"
         offset="1"
         style="stop-color:#f9f06b;stop-opacity:0" />
    </linearGradient>
    <linearGradient
       inkscape:collect="always"
       xlink:href="#linearGradient1879"
       id="linearGradient2794-7"
       gradientUnits="userSpaceOnUse"
       gradientTransform="matrix(0.25,0,0,0.25,-898.33589,890.78501)"
       x1="384"
       y1="120"
       x2="416"
       y2="120" />
    <linearGradient
       inkscape:collect="always"
       xlink:href="#linearGradient985"
       id="linearGradient2796-8"
       gradientUnits="userSpaceOnUse"
       gradientTransform="matrix(0.21451622,0,0,0.25078551,-893.08709,890.71856)"
       x1="301"
       y1="33.559235"
       x2="104"
       y2="33.559235" />
  </defs>
  <metadata
     id="metadata4377">
    <rdf:RDF>
      <cc:Work
         rdf:about="">
        <dc:format>image/svg+xml</dc:format>
        <dc:type
           rdf:resource="http://purl.org/dc/dcmitype/StillImage" />
        <dc:title />
      </cc:Work>
    </rdf:RDF>
  </metadata>
  <g
     id="g4066"
     transform="matrix(0.13666424,0,0,0.13414264,123.6997,-113.18484)"
     style="display:inline">
    <g
       id="g3074"
       style="display:inline;enable-background:new">
      <path
         sodipodi:nodetypes="cccsscc"
         inkscape:connector-curvature="0"
         id="rect970-4-6-1-2-8-1"
         d="m -898.33591,873.78501 v 84 h 96 c 4.43201,0 8,-3.568 8,-8 v -68 c 0,-4.432 -3.56799,-8 -8,-8 z"
         style="display:inline;fill:#813d9c;fill-opacity:1;stroke:none;stroke-width:0.376845;stroke-linejoin:round;stroke-miterlimit:4;stroke-dasharray:none;stroke-opacity:1;enable-background:new" />
      <path
         style="display:inline;fill:url(#linearGradient2794-7);fill-opacity:1;stroke:none;stroke-width:6;stroke-linecap:butt;stroke-linejoin:miter;stroke-miterlimit:4;stroke-dasharray:none;stroke-dashoffset:0;stroke-opacity:1;marker:none;marker-start:none;marker-mid:none;marker-end:none;paint-order:normal;enable-background:new"
         d="m -896.33589,885.78501 v 70 h 93.99999 c 4.432,0 8,-3.568 8,-8 v -54 c 0,-4.432 -3.568,-8 -8,-8 z"
         id="rect954-3-6-3-2-0-9-4-4"
         inkscape:connector-curvature="0"
         sodipodi:nodetypes="cccsscc" />
      <path
         sodipodi:nodetypes="cccsscc"
         inkscape:connector-curvature="0"
         id="rect970-5-3-1-8-6-1-5-9"
         d="m -898.33591,855.78501 v 94 h 96 c 4.43201,0 8,-3.568 8,-8 v -78 c 0,-4.432 -3.56799,-8 -8,-8 z"
         style="display:inline;fill:#813d9c;fill-opacity:1;stroke:none;stroke-width:0.376845;stroke-linejoin:round;stroke-miterlimit:4;stroke-dasharray:none;stroke-opacity:1;enable-background:new" />
      <path
         sodipodi:nodetypes="cccsscc"
         inkscape:connector-curvature="0"
         id="rect970-5-4-4-1-2-0-2"
         d="m -898.33591,853.78501 v 94 h 96 c 4.43201,0 8,-3.568 8,-8 v -78 c 0,-4.432 -3.56799,-8 -8,-8 z"
         style="display:inline;fill:#7a36b1;fill-opacity:1;stroke:none;stroke-width:0.376845;stroke-linejoin:round;stroke-miterlimit:4;stroke-dasharray:none;stroke-opacity:1;enable-background:new" />
      <rect
         y="853.78503"
         x="-898.33594"
         height="94"
         width="8"
         id="rect1073-6-7-5-7-3-0"
         style="display:inline;fill:#3d3846;fill-opacity:1;stroke:none;stroke-width:4;stroke-linecap:round;stroke-linejoin:round;stroke-miterlimit:4;stroke-dasharray:none;stroke-dashoffset:0;stroke-opacity:1;enable-background:new" />
      <path
         inkscape:connector-curvature="0"
         id="path1217-1-4-49-9-6-6"
         d="m -895.33591,947.78501 v -94"
         style="display:inline;opacity:0.15;fill:none;fill-rule:evenodd;stroke:#ffffff;stroke-width:2;stroke-linecap:butt;stroke-linejoin:miter;stroke-miterlimit:4;stroke-dasharray:none;stroke-opacity:1;enable-background:new" />
      <path
         style="display:inline;fill:#7a36b1;fill-opacity:1;stroke-width:0.247489;enable-background:new"
         d="m -894.27826,900.72906 v -46.89914 h 1.85617 1.85617 v 46.89914 46.89914 h -1.85617 -1.85617 z"
         id="path32544-0-0-3-1-8" />
      <path
         style="display:inline;fill:#7a36b1;fill-opacity:1;stroke-width:0.247489;enable-background:new"
         d="m -894.40453,876.72906 c 0,-25.86259 0.029,-36.40604 0.0644,-23.4299 0.0354,12.97614 0.0354,34.13644 0,47.02288 -0.0354,12.88645 -0.0644,2.2696 -0.0644,-23.59298 z"
         id="path32620-6-9-6-0-9" />
      <path
         style="display:inline;fill:#ad65d6;fill-opacity:1;stroke-width:0.247489;enable-background:new"
         d="m -896.25817,900.72906 v -46.89914 h 0.86622 0.86621 v 46.89914 46.89914 h -0.86621 -0.86622 z"
         id="path32659-2-1-0-6-2" />
      <path
         style="display:inline;fill:#4c158a;fill-opacity:1;stroke-width:0.247489;enable-background:new"
         d="m -898.23808,900.72906 v -46.89914 h 0.86621 0.86622 v 46.89914 46.89914 h -0.86622 -0.86621 z"
         id="path32735-9-7-6-3-6" />
      <path
         style="display:inline;fill:#7a36b1;fill-opacity:1;stroke-width:0.247489;enable-background:new"
         d="m -896.25817,900.72906 v -46.89914 h 0.86622 0.86621 v 46.89914 46.89914 h -0.86621 -0.86622 z"
         id="path33332-0-1-6-20-6" />
      <path
         style="display:inline;fill:#7a36b1;fill-opacity:1;stroke-width:0.247489;enable-background:new"
         d="m -898.23808,900.72906 v -46.89914 h 0.86621 0.86622 v 46.89914 46.89914 h -0.86622 -0.86621 z"
         id="path33482-8-1-1-6-4" />
      <path
         style="display:inline;fill:#ad65d6;fill-opacity:1;stroke-width:0.247489;enable-background:new"
         d="m -896.25817,900.72906 v -46.89914 h 0.86622 0.86621 v 46.89914 46.89914 h -0.86621 -0.86622 z"
         id="path33862-3-97-7-1-9" />
      <path
         style="display:inline;fill:#e29ffc;fill-opacity:1;stroke-width:0.153174;enable-background:new"
         d="m -879.60624,937.30433 v -0.91474 h 36.31951 36.31951 v 0.91474 0.91474 h -36.31951 -36.31951 z"
         id="path209464-7-0-1-7-4-4-5-3-55-5" />
      <a
         id="a211277-8-1-0-6-7-4-0"
         transform="matrix(0.9341682,0,0,1,-241.2081,477.0635)"
         style="display:inline;fill:#e29ffc;enable-background:new">
        <path
           style="display:inline;fill:#e29ffc;fill-opacity:1;stroke-width:0.158996;enable-background:new"
           d="m -683.38672,450.30293 v -0.91474 h 39.13303 39.13303 v 0.91474 0.91474 h -39.13303 -39.13303 z"
           id="path209464-7-0-1-0-4-8-3-3-5-7-4" />
      </a>
      <a
         id="a211277-1-5-5-9-9-9-6-8"
         transform="matrix(0.9341682,0,0,1,-241.21269,467.00136)"
         style="display:inline;fill:#e29ffc;enable-background:new">
        <path
           style="display:inline;fill:#e29ffc;fill-opacity:1;stroke-width:0.158996;enable-background:new"
           d="m -683.38672,450.30293 v -0.91474 h 39.13303 39.13303 v 0.91474 0.91474 h -39.13303 -39.13303 z"
           id="path209464-7-0-1-0-3-0-9-1-4-2-5-7" />
      </a>
      <path
         style="display:inline;fill:#e29ffc;fill-opacity:1;stroke-width:0.153174;enable-background:new"
         d="m -879.52272,883.32986 v -0.91474 h 36.31951 36.31951 v 0.91474 0.91474 h -36.31951 -36.31951 z"
         id="path209464-7-0-1-7-4-4-5-3-7-6-1" />
      <a
         id="a211277-8-1-0-6-7-3-9-7"
         transform="matrix(0.9341682,0,0,1,-241.12458,423.08903)"
         style="display:inline;fill:#e29ffc;enable-background:new">
        <path
           style="display:inline;fill:#e29ffc;fill-opacity:1;stroke-width:0.158996;enable-background:new"
           d="m -683.38672,450.30293 v -0.91474 h 39.13303 39.13303 v 0.91474 0.91474 h -39.13303 -39.13303 z"
           id="path209464-7-0-1-0-4-8-3-3-5-6-3-2" />
      </a>
      <a
         id="a211277-1-5-5-9-9-9-1-7-7"
         transform="matrix(0.9341682,0,0,1,-241.12917,413.02689)"
         style="display:inline;fill:#e29ffc;enable-background:new">
        <path
           style="display:inline;fill:#e29ffc;fill-opacity:1;stroke-width:0.158996;enable-background:new"
           d="m -683.38672,450.30293 v -0.91474 h 39.13303 39.13303 v 0.91474 0.91474 h -39.13303 -39.13303 z"
           id="path209464-7-0-1-0-3-0-9-1-4-2-2-4-2" />
      </a>
      <path
         style="fill:#ad65d6;fill-opacity:1;stroke-width:0.349451"
         d="m -890.05055,948.8703 v -0.87491 l 44.99176,-0.0925 44.99176,-0.0925 1.43088,-0.76568 c 0.78699,-0.42112 1.92707,-1.3308 2.53352,-2.0215 1.16456,-1.32636 1.43293,-1.13015 0.60965,0.44574 -0.62868,1.2034 -2.13726,2.60469 -3.70043,3.43726 -1.17235,0.62442 -3.08158,0.65532 -46.04011,0.74524 l -44.81704,0.0938 z"
         id="path28190-9-8-2-5-2" />
      <path
         style="fill:#ad65d6;fill-opacity:1;stroke-width:0.349451"
         d="m -890.05055,956.90891 v -0.87615 l 44.99176,-0.0925 44.99176,-0.0925 1.45136,-0.77612 c 0.79825,-0.42687 1.93833,-1.3669 2.53352,-2.08896 1.12955,-1.37034 1.43624,-1.09777 0.58917,0.52364 -0.62868,1.2034 -2.13726,2.60469 -3.70043,3.43726 -1.17232,0.6244 -3.08291,0.65538 -46.04011,0.74648 l -44.81704,0.095 z"
         id="path28229-6-12-8-2-6" />
      <circle
         r="1.9999998"
         cy="937.38342"
         cx="-884.56598"
         id="circle1505-1-2-4-1"
         style="vector-effect:none;fill:#d5d3cf;fill-opacity:1;stroke:none;stroke-width:8;stroke-linecap:butt;stroke-linejoin:round;stroke-miterlimit:4;stroke-dasharray:none;stroke-dashoffset:0;stroke-opacity:1" />
      <circle
         style="vector-effect:none;fill:#d5d3cf;fill-opacity:1;stroke:none;stroke-width:8;stroke-linecap:butt;stroke-linejoin:round;stroke-miterlimit:4;stroke-dasharray:none;stroke-dashoffset:0;stroke-opacity:1"
         id="circle1507-7-9-7-0"
         cx="-884.56598"
         cy="927.38342"
         r="1.9999998" />
      <circle
         r="1.9999998"
         cy="917.38342"
         cx="-884.56598"
         id="circle1509-2-3-4-6"
         style="vector-effect:none;fill:#d5d3cf;fill-opacity:1;stroke:none;stroke-width:8;stroke-linecap:butt;stroke-linejoin:round;stroke-miterlimit:4;stroke-dasharray:none;stroke-dashoffset:0;stroke-opacity:1" />
      <circle
         style="vector-effect:none;fill:#d5d3cf;fill-opacity:1;stroke:none;stroke-width:8;stroke-linecap:butt;stroke-linejoin:round;stroke-miterlimit:4;stroke-dasharray:none;stroke-dashoffset:0;stroke-opacity:1"
         id="circle1511-7-9-43-1"
         cx="-884.56598"
         cy="883.38342"
         r="1.9999998" />
      <circle
         r="1.9999998"
         cy="873.38342"
         cx="-884.56598"
         id="circle1513-9-2-0-0-5"
         style="vector-effect:none;fill:#d5d3cf;fill-opacity:1;stroke:none;stroke-width:8;stroke-linecap:butt;stroke-linejoin:round;stroke-miterlimit:4;stroke-dasharray:none;stroke-dashoffset:0;stroke-opacity:1" />
      <circle
         style="vector-effect:none;fill:#d5d3cf;fill-opacity:1;stroke:none;stroke-width:8;stroke-linecap:butt;stroke-linejoin:round;stroke-miterlimit:4;stroke-dasharray:none;stroke-dashoffset:0;stroke-opacity:1"
         id="circle1515-2-8-7-9"
         cx="-884.56598"
         cy="863.38342"
         r="1.9999998" />
      <g
         id="g1010"
         transform="matrix(1.0128454,0,0,1.2639435,11.652107,-238.38237)">
        <path
           id="path1092-6-1-3-7-5-5-1-4-8-4"
           style="display:inline;opacity:0.236;fill:none;stroke:#e5a50a;stroke-width:3.25225;stroke-linecap:butt;stroke-linejoin:miter;stroke-miterlimit:10;stroke-dasharray:none;stroke-opacity:1;enable-background:new"
           d="m -878.22655,903.6336 h 22.13639 l 8.51399,-17.8584 5.1084,30.2816 6.8112,-12.4232 h 28.94758"
           inkscape:connector-curvature="0"
           sodipodi:nodetypes="cccccc" />
      </g>
      <path
         id="path1092-6-1-3-7-5-1-0-0-3-6-9"
         style="display:inline;fill:none;stroke:url(#linearGradient2796-8);stroke-width:3.7111;stroke-linecap:round;stroke-linejoin:miter;stroke-miterlimit:10;stroke-dasharray:none;stroke-opacity:1;enable-background:new"
         d="m -877.64202,903.75946 h 22.30969 l 8.58064,-23.07228 5.1484,39.12253 6.86452,-16.05025 h 5.14839"
         inkscape:connector-curvature="0"
         sodipodi:nodetypes="cccccc" />
    </g>
  </g>
  <path
     style="fill:#4c158a;stroke-width:0.0449813"
     d="M 2.0241607,7.6460487 V 1.3478794 l 6.1511993,0.012026 6.151199,0.012026 0.182994,0.097951 c 0.243403,0.130286 0.497027,0.4176037 0.555954,0.6298126 0.03243,0.1168029 0.04766,1.9083771 0.04753,5.5921162 l -1.8e-4,5.4202528 -0.107173,0.230171 c -0.05915,0.127025 -0.178984,0.284944 -0.26742,0.352397 -0.341371,0.26037 -0.05413,0.249587 -6.6487753,0.249587 h -6.065333 z m 0.9610328,5.1253893 c 0.2185661,-0.171924 0.1106001,-0.49153 -0.1660436,-0.49153 -0.2914552,0 -0.4074803,0.313911 -0.1816749,0.49153 0.065186,0.05128 0.1434224,0.09323 0.1738592,0.09323 0.030437,0 0.1086736,-0.04195 0.1738593,-0.09323 z M 13.449423,12.549796 V 12.414852 H 8.4564934 3.4635638 v 0.134944 0.134944 H 8.4564934 13.449423 Z M 3.0137503,11.425262 c 0.1781609,-0.17816 0.048629,-0.494794 -0.2024161,-0.494794 -0.2510449,0 -0.3805769,0.316634 -0.202416,0.494794 0.049479,0.04948 0.1405667,0.08996 0.202416,0.08996 0.061849,0 0.1529366,-0.04048 0.2024161,-0.08996 z M 13.494404,11.222846 v -0.157434 h -2.428992 c -1.3359465,0 -2.4289932,-0.01454 -2.4289932,-0.0323 0,-0.01777 0.09482,-0.250544 0.2107111,-0.517286 l 0.210711,-0.484984 h 2.2182821 2.218281 V 9.8734058 9.7159711 h -2.141426 c -2.0203577,0 -2.1398102,-0.00445 -2.1128367,-0.078717 0.015725,-0.043295 0.1442251,-0.346705 0.2855565,-0.6742457 l 0.2569667,-0.5955283 1.9120965,-0.01172 1.912097,-0.01172 0.0133,-0.3036241 0.0133,-0.3036241 h -2.07016 -2.0701595 l -0.065661,0.101208 C 9.3913637,7.8936643 9.2465152,8.2080924 9.1055922,8.5367289 8.9646688,8.8653653 8.841271,9.1261528 8.8313742,9.1162564 8.8214779,9.1063596 8.7134754,8.351677 8.5913695,7.4391831 8.4692631,6.5266892 8.3568219,5.7041972 8.3414999,5.6114231 l -0.027858,-0.16868 h 2.5678901 2.567891 V 5.307799 5.172855 H 10.862995 C 8.8243165,5.172855 8.2763794,5.160947 8.2756772,5.116628 8.2746372,5.050891 8.1994502,4.4965854 8.1628042,4.2844731 L 8.1375473,4.138284 h 2.6784287 2.678428 V 3.9808493 3.8234146 H 8.476134 3.4578639 l 0.014095,0.1461893 0.014095,0.1461894 2.2543214,0.011658 2.2543214,0.011658 L 7.8017651,4.6447368 7.6088329,5.1503643 5.5361984,5.1620589 3.4635638,5.1737535 V 5.3082483 5.4427431 H 5.4810493 7.4985351 L 7.0666417,6.5887275 6.6347488,7.7347114 5.172855,7.7469972 3.7109612,7.7592825 V 8.0516613 8.34404 l 1.5518565,0.012552 c 0.8535211,0.0069 1.59261,0.00266 1.6424197,-0.00943 C 6.9771664,8.329703 7.0836042,8.0932684 7.4225229,7.1980955 7.6572203,6.578199 7.8538549,6.0966444 7.8594888,6.1279734 c 0.030768,0.1710956 0.4620605,3.4503618 0.4620605,3.5132052 0,0.068814 -0.1943985,0.074793 -2.4318427,0.074793 H 3.4578639 l 0.014095,0.1461894 0.014095,0.14619 2.4507176,0.02249 2.4507177,0.02249 0.053059,0.382341 c 0.029182,0.210287 0.054829,0.438006 0.056992,0.506041 l 0.00393,0.123699 H 5.9825193 3.4635638 v 0.127447 c 0,0.0701 0.013494,0.140941 0.029988,0.157434 0.016493,0.01649 2.2734322,0.02999 5.0154204,0.02999 H 13.494404 Z M 3.0137503,10.075822 C 3.1919112,9.8976611 3.0623791,9.5810271 2.8113342,9.5810271 c -0.2510449,0 -0.3805769,0.316634 -0.202416,0.4947949 0.049479,0.04948 0.1405667,0.08996 0.202416,0.08996 0.061849,0 0.1529366,-0.04048 0.2024161,-0.08996 z M 2.9851935,5.529441 c 0.2185661,-0.1719241 0.1106001,-0.49153 -0.1660436,-0.49153 -0.2914552,0 -0.4074803,0.3139115 -0.1816749,0.49153 0.065186,0.051275 0.1434224,0.093227 0.1738592,0.093227 0.030437,0 0.1086736,-0.041952 0.1738593,-0.093227 z M 3.0474863,4.1497154 C 3.1832011,3.9720488 3.0380123,3.6884705 2.8113342,3.6884705 c -0.305972,0 -0.3970007,0.4488374 -0.1124533,0.5544767 0.1026954,0.038126 0.2856384,-0.010801 0.3486054,-0.093232 z M 3.0137503,2.8338249 c 0.1150165,-0.1150164 0.1150165,-0.2898157 0,-0.4048321 -0.1150164,-0.1150165 -0.2898157,-0.1150165 -0.4048321,0 -0.1150165,0.1150164 -0.1150165,0.2898157 0,0.4048321 0.049479,0.049479 0.1405667,0.089963 0.202416,0.089963 0.061849,0 0.1529366,-0.040483 0.2024161,-0.089963 z M 13.494404,2.6314088 V 2.4739741 H 8.4789841 3.4635638 v 0.1274472 c 0,0.070096 0.013494,0.1409416 0.029988,0.1574347 0.016493,0.016493 2.2734322,0.029988 5.0154204,0.029988 h 4.9854318 z"
     id="path10891" />
  <path
     style="fill:#4c158a;stroke-width:0.0449813"
     d="M 1.2144964,7.6243385 V 1.3494404 H 1.3269498 1.4394031 V 7.6243385 13.899236 H 1.3269498 1.2144964 Z"
     id="path10930" />
</svg>
