<?xml version="1.0" encoding="UTF-8" standalone="no"?>
<svg
   version="1.1"
   width="32"
   height="32"
   id="svg6860"
   sodipodi:docname="32.svg"
   inkscape:version="1.1 (c68e22c387, 2021-05-23)"
   xmlns:inkscape="http://www.inkscape.org/namespaces/inkscape"
   xmlns:sodipodi="http://sodipodi.sourceforge.net/DTD/sodipodi-0.dtd"
   xmlns:xlink="http://www.w3.org/1999/xlink"
   xmlns="http://www.w3.org/2000/svg"
   xmlns:svg="http://www.w3.org/2000/svg"
   xmlns:rdf="http://www.w3.org/1999/02/22-rdf-syntax-ns#"
   xmlns:cc="http://creativecommons.org/ns#"
   xmlns:dc="http://purl.org/dc/elements/1.1/">
  <sodipodi:namedview
     pagecolor="#ffffff"
     bordercolor="#666666"
     borderopacity="1"
     objecttolerance="10"
     gridtolerance="10"
     guidetolerance="10"
     inkscape:pageopacity="0"
     inkscape:pageshadow="2"
     inkscape:window-width="1920"
     inkscape:window-height="1019"
     id="namedview42"
     showgrid="true"
     inkscape:zoom="11.136932"
     inkscape:cx="-1.3019744"
     inkscape:cy="13.917657"
     inkscape:window-x="0"
     inkscape:window-y="30"
     inkscape:window-maximized="1"
     inkscape:current-layer="svg6860"
     inkscape:document-rotation="0"
     inkscape:pagecheckerboard="0">
    <inkscape:grid
       type="xygrid"
       id="grid860"
       empspacing="4" />
    <inkscape:grid
       type="xygrid"
       id="grid862"
       spacingy="0.5"
       spacingx="0.5"
       empspacing="2"
       dotted="true" />
  </sodipodi:namedview>
  <defs
     id="defs6862">
    <linearGradient
       id="linearGradient857">
      <stop
         style="stop-color:#667885;stop-opacity:1"
         offset="0"
         id="stop853" />
      <stop
         style="stop-color:#485a6c;stop-opacity:1"
         offset="1"
         id="stop855" />
    </linearGradient>
    <linearGradient
       x1="23.99999"
       y1="6.2399855"
       x2="23.99999"
       y2="41.759987"
       id="linearGradient4161"
       xlink:href="#linearGradient3924-0"
       gradientUnits="userSpaceOnUse"
       gradientTransform="matrix(0.67567568,0,0,0.67567568,-0.21621703,-0.21620627)" />
    <linearGradient
       id="linearGradient3924-0">
      <stop
         id="stop3926-6"
         style="stop-color:#ffffff;stop-opacity:1"
         offset="0" />
      <stop
         id="stop3928-3"
         style="stop-color:#ffffff;stop-opacity:0.23529412"
         offset="0.04166666" />
      <stop
         id="stop3930-2"
         style="stop-color:#ffffff;stop-opacity:0.15686275"
         offset="0.95833325" />
      <stop
         id="stop3932-62"
         style="stop-color:#ffffff;stop-opacity:0.39215687"
         offset="1" />
    </linearGradient>
    <radialGradient
       cx="4.9929786"
       cy="43.5"
       r="2.5"
       fx="4.9929786"
       fy="43.5"
       id="radialGradient2976"
       xlink:href="#linearGradient3688-166-749-6"
       gradientUnits="userSpaceOnUse"
       gradientTransform="matrix(2.003784,0,0,1.4,27.98813,-17.4)" />
    <linearGradient
       id="linearGradient3688-166-749-6">
      <stop
         id="stop2883-8"
         style="stop-color:#181818;stop-opacity:1"
         offset="0" />
      <stop
         id="stop2885-3"
         style="stop-color:#181818;stop-opacity:0"
         offset="1" />
    </linearGradient>
    <radialGradient
       cx="4.9929786"
       cy="43.5"
       r="2.5"
       fx="4.9929786"
       fy="43.5"
       id="radialGradient2978"
       xlink:href="#linearGradient3688-464-309-7"
       gradientUnits="userSpaceOnUse"
       gradientTransform="matrix(2.003784,0,0,1.4,-20.01187,-104.4)" />
    <linearGradient
       id="linearGradient3688-464-309-7">
      <stop
         id="stop2889-0"
         style="stop-color:#181818;stop-opacity:1"
         offset="0" />
      <stop
         id="stop2891-66"
         style="stop-color:#181818;stop-opacity:0"
         offset="1" />
    </linearGradient>
    <linearGradient
       x1="25.058096"
       y1="47.027729"
       x2="25.058096"
       y2="39.999443"
       id="linearGradient2980"
       xlink:href="#linearGradient3702-501-757-3"
       gradientUnits="userSpaceOnUse" />
    <linearGradient
       id="linearGradient3702-501-757-3">
      <stop
         id="stop2895-3"
         style="stop-color:#181818;stop-opacity:0"
         offset="0" />
      <stop
         id="stop2897-28"
         style="stop-color:#181818;stop-opacity:1"
         offset="0.5" />
      <stop
         id="stop2899-8"
         style="stop-color:#181818;stop-opacity:0"
         offset="1" />
    </linearGradient>
    <linearGradient
       xlink:href="#linearGradient857"
       id="linearGradient856-2"
       x1="23.528315"
       y1="6.08318"
       x2="23.528315"
       y2="44.23307"
       gradientUnits="userSpaceOnUse"
       gradientTransform="matrix(0.69230783,0,0,0.69230789,-0.61539969,-1.307693)" />
    <linearGradient
       id="linearGradient1879"
       inkscape:collect="always">
      <stop
         id="stop1873"
         offset="0"
         style="stop-color:#e8e7e4;stop-opacity:1" />
      <stop
         style="stop-color:#ffffff;stop-opacity:1"
         offset="0.51104856"
         id="stop1875" />
      <stop
         id="stop1877"
         offset="1"
         style="stop-color:#c2bfba;stop-opacity:1" />
    </linearGradient>
    <linearGradient
       id="linearGradient985"
       inkscape:collect="always">
      <stop
         id="stop981"
         offset="0"
         style="stop-color:#f9f06b;stop-opacity:1" />
      <stop
         id="stop983"
         offset="1"
         style="stop-color:#f9f06b;stop-opacity:0" />
    </linearGradient>
    <linearGradient
       inkscape:collect="always"
       xlink:href="#linearGradient1879"
       id="linearGradient2794-3"
       gradientUnits="userSpaceOnUse"
       gradientTransform="matrix(0.25,0,0,0.25,-898.33589,890.78501)"
       x1="384"
       y1="120"
       x2="416"
       y2="120" />
    <linearGradient
       inkscape:collect="always"
       xlink:href="#linearGradient985"
       id="linearGradient2796-3"
       gradientUnits="userSpaceOnUse"
       gradientTransform="matrix(0.21451622,0,0,0.25078551,-893.08709,890.71856)"
       x1="301"
       y1="33.559235"
       x2="104"
       y2="33.559235" />
  </defs>
  <metadata
     id="metadata6865">
    <rdf:RDF>
      <cc:Work
         rdf:about="">
        <dc:format>image/svg+xml</dc:format>
        <dc:type
           rdf:resource="http://purl.org/dc/dcmitype/StillImage" />
        <dc:title />
      </cc:Work>
    </rdf:RDF>
  </metadata>
  <rect
     style="opacity:0.35;fill:none;stroke:url(#linearGradient4161);stroke-width:1;stroke-linecap:round;stroke-linejoin:round;stroke-miterlimit:4;stroke-dasharray:none;stroke-dashoffset:0;stroke-opacity:1"
     id="rect6741-7-4"
     y="3.4999998"
     x="3.5"
     ry="2"
     rx="2"
     height="25"
     width="25" />
  <g
     id="g4066"
     transform="matrix(0.27835564,0,0,0.27982885,251.70657,-237.48046)"
     style="display:inline">
    <g
       id="g3074"
       style="display:inline;enable-background:new">
      <path
         sodipodi:nodetypes="cccsscc"
         inkscape:connector-curvature="0"
         id="rect970-4-6-1-2-8-2"
         d="m -898.33591,873.78501 v 84 h 96 c 4.43201,0 8,-3.568 8,-8 v -68 c 0,-4.432 -3.56799,-8 -8,-8 z"
         style="display:inline;fill:#813d9c;fill-opacity:1;stroke:none;stroke-width:0.376845;stroke-linejoin:round;stroke-miterlimit:4;stroke-dasharray:none;stroke-opacity:1;enable-background:new" />
      <path
         style="display:inline;fill:url(#linearGradient2794-3);fill-opacity:1;stroke:none;stroke-width:6;stroke-linecap:butt;stroke-linejoin:miter;stroke-miterlimit:4;stroke-dasharray:none;stroke-dashoffset:0;stroke-opacity:1;marker:none;marker-start:none;marker-mid:none;marker-end:none;paint-order:normal;enable-background:new"
         d="m -896.33589,885.78501 v 70 h 93.99999 c 4.432,0 8,-3.568 8,-8 v -54 c 0,-4.432 -3.568,-8 -8,-8 z"
         id="rect954-3-6-3-2-0-9-4-9"
         inkscape:connector-curvature="0"
         sodipodi:nodetypes="cccsscc" />
      <path
         sodipodi:nodetypes="cccsscc"
         inkscape:connector-curvature="0"
         id="rect970-5-3-1-8-6-1-5-1"
         d="m -898.33591,855.78501 v 94 h 96 c 4.43201,0 8,-3.568 8,-8 v -78 c 0,-4.432 -3.56799,-8 -8,-8 z"
         style="display:inline;fill:#813d9c;fill-opacity:1;stroke:none;stroke-width:0.376845;stroke-linejoin:round;stroke-miterlimit:4;stroke-dasharray:none;stroke-opacity:1;enable-background:new" />
      <path
         sodipodi:nodetypes="cccsscc"
         inkscape:connector-curvature="0"
         id="rect970-5-4-4-1-2-0-2"
         d="m -898.33591,853.78501 v 94 h 96 c 4.43201,0 8,-3.568 8,-8 v -78 c 0,-4.432 -3.56799,-8 -8,-8 z"
         style="display:inline;fill:#7a36b1;fill-opacity:1;stroke:none;stroke-width:0.376845;stroke-linejoin:round;stroke-miterlimit:4;stroke-dasharray:none;stroke-opacity:1;enable-background:new" />
      <rect
         y="853.78503"
         x="-898.33594"
         height="94"
         width="8"
         id="rect1073-6-7-5-7-3-7"
         style="display:inline;fill:#3d3846;fill-opacity:1;stroke:none;stroke-width:4;stroke-linecap:round;stroke-linejoin:round;stroke-miterlimit:4;stroke-dasharray:none;stroke-dashoffset:0;stroke-opacity:1;enable-background:new" />
      <path
         inkscape:connector-curvature="0"
         id="path1217-1-4-49-9-6-0"
         d="m -895.33591,947.78501 v -94"
         style="display:inline;opacity:0.15;fill:none;fill-rule:evenodd;stroke:#ffffff;stroke-width:2;stroke-linecap:butt;stroke-linejoin:miter;stroke-miterlimit:4;stroke-dasharray:none;stroke-opacity:1;enable-background:new" />
      <path
         style="display:inline;fill:#7a36b1;fill-opacity:1;stroke-width:0.247489;enable-background:new"
         d="m -894.27826,900.72906 v -46.89914 h 1.85617 1.85617 v 46.89914 46.89914 h -1.85617 -1.85617 z"
         id="path32544-0-0-3-1-9" />
      <path
         style="display:inline;fill:#7a36b1;fill-opacity:1;stroke-width:0.247489;enable-background:new"
         d="m -894.40453,876.72906 c 0,-25.86259 0.029,-36.40604 0.0644,-23.4299 0.0354,12.97614 0.0354,34.13644 0,47.02288 -0.0354,12.88645 -0.0644,2.2696 -0.0644,-23.59298 z"
         id="path32620-6-9-6-0-3" />
      <path
         style="display:inline;fill:#ad65d6;fill-opacity:1;stroke-width:0.247489;enable-background:new"
         d="m -896.25817,900.72906 v -46.89914 h 0.86622 0.86621 v 46.89914 46.89914 h -0.86621 -0.86622 z"
         id="path32659-2-1-0-6-6" />
      <path
         style="display:inline;fill:#4c158a;fill-opacity:1;stroke-width:0.247489;enable-background:new"
         d="m -898.23808,900.72906 v -46.89914 h 0.86621 0.86622 v 46.89914 46.89914 h -0.86622 -0.86621 z"
         id="path32735-9-7-6-3-0" />
      <path
         style="display:inline;fill:#7a36b1;fill-opacity:1;stroke-width:0.247489;enable-background:new"
         d="m -896.25817,900.72906 v -46.89914 h 0.86622 0.86621 v 46.89914 46.89914 h -0.86621 -0.86622 z"
         id="path33332-0-1-6-20-6" />
      <path
         style="display:inline;fill:#7a36b1;fill-opacity:1;stroke-width:0.247489;enable-background:new"
         d="m -898.23808,900.72906 v -46.89914 h 0.86621 0.86622 v 46.89914 46.89914 h -0.86622 -0.86621 z"
         id="path33482-8-1-1-6-2" />
      <path
         style="display:inline;fill:#ad65d6;fill-opacity:1;stroke-width:0.247489;enable-background:new"
         d="m -896.25817,900.72906 v -46.89914 h 0.86622 0.86621 v 46.89914 46.89914 h -0.86621 -0.86622 z"
         id="path33862-3-97-7-1-6" />
      <path
         style="display:inline;fill:#e29ffc;fill-opacity:1;stroke-width:0.153174;enable-background:new"
         d="m -879.60624,937.30433 v -0.91474 h 36.31951 36.31951 v 0.91474 0.91474 h -36.31951 -36.31951 z"
         id="path209464-7-0-1-7-4-4-5-3-55-1" />
      <a
         id="a211277-8-1-0-6-7-4-8"
         transform="matrix(0.9341682,0,0,1,-241.2081,477.0635)"
         style="display:inline;fill:#e29ffc;enable-background:new">
        <path
           style="display:inline;fill:#e29ffc;fill-opacity:1;stroke-width:0.158996;enable-background:new"
           d="m -683.38672,450.30293 v -0.91474 h 39.13303 39.13303 v 0.91474 0.91474 h -39.13303 -39.13303 z"
           id="path209464-7-0-1-0-4-8-3-3-5-7-7" />
      </a>
      <a
         id="a211277-1-5-5-9-9-9-6-9"
         transform="matrix(0.9341682,0,0,1,-241.21269,467.00136)"
         style="display:inline;fill:#e29ffc;enable-background:new">
        <path
           style="display:inline;fill:#e29ffc;fill-opacity:1;stroke-width:0.158996;enable-background:new"
           d="m -683.38672,450.30293 v -0.91474 h 39.13303 39.13303 v 0.91474 0.91474 h -39.13303 -39.13303 z"
           id="path209464-7-0-1-0-3-0-9-1-4-2-5-2" />
      </a>
      <path
         style="display:inline;fill:#e29ffc;fill-opacity:1;stroke-width:0.153174;enable-background:new"
         d="m -879.52272,883.32986 v -0.91474 h 36.31951 36.31951 v 0.91474 0.91474 h -36.31951 -36.31951 z"
         id="path209464-7-0-1-7-4-4-5-3-7-6-0" />
      <a
         id="a211277-8-1-0-6-7-3-9-2"
         transform="matrix(0.9341682,0,0,1,-241.12458,423.08903)"
         style="display:inline;fill:#e29ffc;enable-background:new">
        <path
           style="display:inline;fill:#e29ffc;fill-opacity:1;stroke-width:0.158996;enable-background:new"
           d="m -683.38672,450.30293 v -0.91474 h 39.13303 39.13303 v 0.91474 0.91474 h -39.13303 -39.13303 z"
           id="path209464-7-0-1-0-4-8-3-3-5-6-3-3" />
      </a>
      <a
         id="a211277-1-5-5-9-9-9-1-7-7"
         transform="matrix(0.9341682,0,0,1,-241.12917,413.02689)"
         style="display:inline;fill:#e29ffc;enable-background:new">
        <path
           style="display:inline;fill:#e29ffc;fill-opacity:1;stroke-width:0.158996;enable-background:new"
           d="m -683.38672,450.30293 v -0.91474 h 39.13303 39.13303 v 0.91474 0.91474 h -39.13303 -39.13303 z"
           id="path209464-7-0-1-0-3-0-9-1-4-2-2-4-5" />
      </a>
      <path
         style="fill:#ad65d6;fill-opacity:1;stroke-width:0.349451"
         d="m -890.05055,948.8703 v -0.87491 l 44.99176,-0.0925 44.99176,-0.0925 1.43088,-0.76568 c 0.78699,-0.42112 1.92707,-1.3308 2.53352,-2.0215 1.16456,-1.32636 1.43293,-1.13015 0.60965,0.44574 -0.62868,1.2034 -2.13726,2.60469 -3.70043,3.43726 -1.17235,0.62442 -3.08158,0.65532 -46.04011,0.74524 l -44.81704,0.0938 z"
         id="path28190-9-8-2-5-9" />
      <path
         style="fill:#ad65d6;fill-opacity:1;stroke-width:0.349451"
         d="m -890.05055,956.90891 v -0.87615 l 44.99176,-0.0925 44.99176,-0.0925 1.45136,-0.77612 c 0.79825,-0.42687 1.93833,-1.3669 2.53352,-2.08896 1.12955,-1.37034 1.43624,-1.09777 0.58917,0.52364 -0.62868,1.2034 -2.13726,2.60469 -3.70043,3.43726 -1.17232,0.6244 -3.08291,0.65538 -46.04011,0.74648 l -44.81704,0.095 z"
         id="path28229-6-12-8-2-2" />
      <circle
         r="1.9999998"
         cy="937.38342"
         cx="-884.56598"
         id="circle1505-1-2-4-2"
         style="vector-effect:none;fill:#d5d3cf;fill-opacity:1;stroke:none;stroke-width:8;stroke-linecap:butt;stroke-linejoin:round;stroke-miterlimit:4;stroke-dasharray:none;stroke-dashoffset:0;stroke-opacity:1" />
      <circle
         style="vector-effect:none;fill:#d5d3cf;fill-opacity:1;stroke:none;stroke-width:8;stroke-linecap:butt;stroke-linejoin:round;stroke-miterlimit:4;stroke-dasharray:none;stroke-dashoffset:0;stroke-opacity:1"
         id="circle1507-7-9-7-8"
         cx="-884.56598"
         cy="927.38342"
         r="1.9999998" />
      <circle
         r="1.9999998"
         cy="917.38342"
         cx="-884.56598"
         id="circle1509-2-3-4-9"
         style="vector-effect:none;fill:#d5d3cf;fill-opacity:1;stroke:none;stroke-width:8;stroke-linecap:butt;stroke-linejoin:round;stroke-miterlimit:4;stroke-dasharray:none;stroke-dashoffset:0;stroke-opacity:1" />
      <circle
         style="vector-effect:none;fill:#d5d3cf;fill-opacity:1;stroke:none;stroke-width:8;stroke-linecap:butt;stroke-linejoin:round;stroke-miterlimit:4;stroke-dasharray:none;stroke-dashoffset:0;stroke-opacity:1"
         id="circle1511-7-9-43-7"
         cx="-884.56598"
         cy="883.38342"
         r="1.9999998" />
      <circle
         r="1.9999998"
         cy="873.38342"
         cx="-884.56598"
         id="circle1513-9-2-0-0-3"
         style="vector-effect:none;fill:#d5d3cf;fill-opacity:1;stroke:none;stroke-width:8;stroke-linecap:butt;stroke-linejoin:round;stroke-miterlimit:4;stroke-dasharray:none;stroke-dashoffset:0;stroke-opacity:1" />
      <circle
         style="vector-effect:none;fill:#d5d3cf;fill-opacity:1;stroke:none;stroke-width:8;stroke-linecap:butt;stroke-linejoin:round;stroke-miterlimit:4;stroke-dasharray:none;stroke-dashoffset:0;stroke-opacity:1"
         id="circle1515-2-8-7-6"
         cx="-884.56598"
         cy="863.38342"
         r="1.9999998" />
      <g
         id="g1010"
         transform="matrix(1.0128454,0,0,1.2639435,11.652107,-238.38237)">
        <path
           id="path1092-6-1-3-7-5-5-1-4-8-1"
           style="display:inline;opacity:0.236;fill:none;stroke:#e5a50a;stroke-width:3.25225;stroke-linecap:butt;stroke-linejoin:miter;stroke-miterlimit:10;stroke-dasharray:none;stroke-opacity:1;enable-background:new"
           d="m -878.22655,903.6336 h 22.13639 l 8.51399,-17.8584 5.1084,30.2816 6.8112,-12.4232 h 28.94758"
           inkscape:connector-curvature="0"
           sodipodi:nodetypes="cccccc" />
      </g>
      <path
         id="path1092-6-1-3-7-5-1-0-0-3-6-2"
         style="display:inline;fill:none;stroke:url(#linearGradient2796-3);stroke-width:3.7111;stroke-linecap:round;stroke-linejoin:miter;stroke-miterlimit:10;stroke-dasharray:none;stroke-opacity:1;enable-background:new"
         d="m -877.64202,903.75946 h 22.30969 l 8.58064,-23.07228 5.1484,39.12253 6.86452,-16.05025 h 5.14839"
         inkscape:connector-curvature="0"
         sodipodi:nodetypes="cccccc" />
    </g>
  </g>
  <path
     style="fill:#4c158a;stroke-width:0.0897913"
     d="M 3.9508188,14.589258 V 1.432993 L 16.409367,1.457275 c 11.275589,0.021976 12.489008,0.038136 12.779348,0.1701844 0.505069,0.2297093 0.94182,0.6670415 1.150424,1.1519542 l 0.191926,0.4461461 -0.02345,11.5257783 -0.02345,11.525778 -0.248657,0.375729 c -0.330399,0.499242 -0.871355,0.878447 -1.421449,0.996421 -0.306854,0.06581 -4.310262,0.09626 -12.656031,0.09626 H 3.9508188 Z m 1.8811925,10.734267 c 0.210391,-0.112598 0.2978826,-0.466082 0.1873308,-0.756855 -0.1600037,-0.420842 -0.8746767,-0.425314 -1.0654249,-0.0067 -0.1398661,0.306973 -0.135641,0.339052 0.080915,0.614358 0.1947346,0.247565 0.5048807,0.305598 0.7971794,0.149165 z M 27.116983,24.827304 V 24.513035 H 16.970562 6.8241415 v 0.314269 0.31427 H 16.970562 27.116983 Z M 5.9197111,22.390829 c 0.2340093,-0.297495 0.2359545,-0.52168 0.00652,-0.751117 -0.5372709,-0.537271 -1.3643985,0.149793 -0.8964718,0.744665 0.2551668,0.324391 0.6376818,0.327165 0.8899547,0.0065 z m 21.3600959,-0.369504 0.02814,-0.291822 h -4.995159 -4.995159 l 0.06404,-0.201782 c 0.03522,-0.11098 0.236902,-0.605955 0.448174,-1.099943 l 0.38413,-0.898162 4.541297,-0.02327 4.541296,-0.02327 v -0.268551 -0.268551 h -4.409382 c -3.514369,0 -4.400551,-0.02302 -4.365872,-0.113384 0.02393,-0.06236 0.297064,-0.708439 0.606963,-1.435729 l 0.563453,-1.322342 3.914658,-0.02338 3.914658,-0.02338 0.02655,-0.606091 0.02655,-0.606092 H 23.27822 18.982294 l -0.624253,1.495561 c -0.343339,0.822559 -0.633691,1.438752 -0.645227,1.369318 -0.01153,-0.06943 -0.223544,-1.702081 -0.47113,-3.628105 -0.247585,-1.92603 -0.472313,-3.633188 -0.499394,-3.79369 L 16.69305,9.9668383 h 5.211966 5.211966 V 9.6974643 9.4280902 h -5.24004 -5.240041 L 16.528763,8.5975204 C 16.469287,8.140707 16.398443,7.6356307 16.371331,7.4751287 l -0.04929,-0.2918218 h 5.487265 5.487264 V 6.9139328 6.6445588 H 17.060354 6.8241415 v 0.2685659 0.268566 l 4.6133045,0.023256 4.613305,0.023256 -0.406407,1.0999439 -0.406406,1.0999438 H 11.03104 6.8241415 v 0.2693741 0.269374 h 4.0855055 c 2.247028,0 4.085506,0.025043 4.085506,0.055653 0,0.03061 -0.392838,1.121573 -0.872974,2.424366 L 13.249206,14.81557 H 10.25705 7.2648931 l 0.02655,0.606092 0.02655,0.606091 3.2879289,0.02354 c 2.563415,0.01835 3.307359,-0.0014 3.376101,-0.08979 0.0485,-0.06233 0.442643,-1.08308 0.875887,-2.268325 0.433242,-1.185246 0.815129,-2.185323 0.848638,-2.222394 0.05322,-0.05887 1.001711,6.906 0.996592,7.318052 -0.0018,0.147724 -0.297725,0.157135 -4.940476,0.157135 H 6.8241415 v 0.26862 0.26862 l 5.0038175,0.0232 5.003817,0.0232 0.139439,1.099943 0.139439,1.099944 H 11.967398 6.8241415 v 0.314652 0.314652 L 17.037906,22.335976 27.25167,22.313147 Z M 5.885414,19.623488 C 6.1483296,19.360573 6.164798,19.128504 5.94022,18.851163 5.7420952,18.606489 5.2709524,18.57506 5.0539689,18.792043 c -0.2169833,0.216984 -0.1855549,0.688127 0.059119,0.886252 0.2773414,0.224578 0.5094099,0.208109 0.7723257,-0.05481 z m 0,-9.517881 C 6.2967591,9.6942615 6.0692593,9.1587162 5.4831745,9.1587162 c -0.374337,0 -0.4982119,0.097978 -0.5909281,0.4673883 -0.04743,0.1889767 -0.01061,0.2920095 0.1682827,0.4709025 0.2879564,0.287956 0.5428707,0.290614 0.8248849,0.0086 z m 0,-2.7835317 c 0.279665,-0.2796651 0.279665,-0.5366198 0,-0.8162849 C 5.6224982,6.2428747 5.3904297,6.2264063 5.1130883,6.4509838 c -0.2780256,0.2251315 -0.2780256,0.7007666 0,0.9258981 C 5.3904297,7.6014594 5.6224982,7.584991 5.885414,7.3220753 Z M 5.948676,4.4718168 C 6.1654991,4.2210593 6.1453381,3.9821832 5.885414,3.722259 5.5492579,3.386103 5.1022914,3.475181 4.9364478,3.9113826 4.6908353,4.5573922 5.491414,5.0006437 5.948676,4.4718168 Z m 21.34789,-0.386311 V 3.7712361 H 17.060354 6.8241415 V 4.0855058 4.3997754 H 17.060354 27.296566 Z"
     id="path151" />
  <path
     style="fill:#4c158a;stroke-width:0.0897913"
     d="M 2.2447834,14.591092 V 1.5264527 H 2.4692617 2.6937401 V 14.591092 27.655731 H 2.4692617 2.2447834 Z"
     id="path190" />
</svg>
