<?xml version="1.0" encoding="UTF-8" standalone="no"?>
<svg
   height="128px"
   viewBox="0 0 128 128"
   width="128px"
   version="1.1"
   id="svg114"
   sodipodi:docname="32.svg"
   inkscape:version="1.1 (c68e22c387, 2021-05-23)"
   xmlns:inkscape="http://www.inkscape.org/namespaces/inkscape"
   xmlns:sodipodi="http://sodipodi.sourceforge.net/DTD/sodipodi-0.dtd"
   xmlns:xlink="http://www.w3.org/1999/xlink"
   xmlns="http://www.w3.org/2000/svg"
   xmlns:svg="http://www.w3.org/2000/svg">
  <defs
     id="defs118" />
  <sodipodi:namedview
     id="namedview116"
     pagecolor="#ffffff"
     bordercolor="#666666"
     borderopacity="1.0"
     inkscape:pageshadow="2"
     inkscape:pageopacity="0.0"
     inkscape:pagecheckerboard="0"
     showgrid="false"
     inkscape:zoom="6.5234375"
     inkscape:cx="20.00479"
     inkscape:cy="64.076647"
     inkscape:window-width="1920"
     inkscape:window-height="1019"
     inkscape:window-x="0"
     inkscape:window-y="30"
     inkscape:window-maximized="1"
     inkscape:current-layer="svg114" />
  <linearGradient
     id="a"
     gradientTransform="matrix(0.05803812,0,0,0.03462211,61.934322,49.171607)"
     gradientUnits="userSpaceOnUse"
     x1="301"
     x2="104"
     y1="33.559235"
     y2="33.559235">
    <stop
       offset="0"
       stop-color="#f9f06b"
       id="stop2" />
    <stop
       offset="1"
       stop-color="#f9f06b"
       stop-opacity="0"
       id="stop4" />
  </linearGradient>
  <clipPath
     id="b">
    <path
       d="m 98 83 h 22 v 23 h -22 z m 0 0"
       id="path7" />
  </clipPath>
  <clipPath
     id="c">
    <path
       d="m 119.214844 83.871094 l -20.300782 21.167968 h -5.796874 v -27.214843 h 26.097656 z m 0 0"
       id="path10" />
  </clipPath>
  <symbol
     id="d"
     overflow="visible">
    <path
       d="m 0.65625 -11.21875 h 4.171875 v 11.21875 h 2.828125 v -11.21875 h 4.15625 v -2.359375 h -11.15625 z m 0 0"
       id="path13" />
  </symbol>
  <symbol
     id="e"
     overflow="visible">
    <path
       d="m 1.125 0 h 2.828125 v -5.765625 c 0 -1.25 0.90625 -2.109375 2.15625 -2.109375 c 0.390625 0 0.9375 0.0625 1.203125 0.15625 v -2.515625 c -0.25 -0.0625 -0.609375 -0.09375 -0.890625 -0.09375 c -1.140625 0 -2.078125 0.65625 -2.453125 1.921875 h -0.109375 v -1.78125 h -2.734375 z m 0 0"
       id="path16" />
  </symbol>
  <symbol
     id="f"
     overflow="visible">
    <path
       d="m 2.546875 -11.5 c 0.84375 0 1.53125 -0.640625 1.53125 -1.4375 c 0 -0.78125 -0.6875 -1.421875 -1.53125 -1.421875 s -1.53125 0.640625 -1.53125 1.421875 c 0 0.796875 0.6875 1.4375 1.53125 1.4375 z m -1.421875 11.5 h 2.828125 v -10.1875 h -2.828125 z m 0 0"
       id="path19" />
  </symbol>
  <symbol
     id="g"
     overflow="visible">
    <path
       d="m 1.125 0 h 2.828125 v -6.109375 c 0 -1.125 0.71875 -1.875 1.65625 -1.875 c 0.921875 0 1.546875 0.625 1.546875 1.625 v 6.359375 h 2.75 v -6.21875 c 0 -1.0625 0.59375 -1.765625 1.625 -1.765625 c 0.90625 0 1.578125 0.5625 1.578125 1.6875 v 6.296875 h 2.8125 v -6.84375 c 0 -2.21875 -1.3125 -3.46875 -3.203125 -3.46875 c -1.5 0 -2.65625 0.75 -3.078125 1.921875 h -0.09375 c -0.328125 -1.171875 -1.375 -1.921875 -2.765625 -1.921875 c -1.375 0 -2.421875 0.71875 -2.84375 1.921875 h -0.125 v -1.796875 h -2.6875 z m 0 0"
       id="path22" />
  </symbol>
  <symbol
     id="h"
     overflow="visible">
    <path
       d="m 8.5 -17.453125 v 12.171875 c 0 1.671875 -0.75 2.5625 -2.109375 2.5625 c -1.296875 0 -2.125 -0.796875 -2.15625 -2.1875 h -3.671875 c -0.015625 3.484375 2.46875 5.140625 5.640625 5.140625 c 3.53125 0 5.9375 -2.140625 5.953125 -5.515625 v -12.171875 z m 0 0"
       id="path25" />
  </symbol>
  <symbol
     id="i"
     overflow="visible">
    <path
       d="m 7.359375 0.25 c 3.96875 0 6.453125 -2.71875 6.453125 -6.75 c 0 -4.046875 -2.484375 -6.765625 -6.453125 -6.765625 s -6.4375 2.71875 -6.4375 6.765625 c 0 4.03125 2.46875 6.75 6.4375 6.75 z m 0.015625 -2.8125 c -1.828125 0 -2.765625 -1.671875 -2.765625 -3.953125 s 0.9375 -3.96875 2.765625 -3.96875 c 1.796875 0 2.734375 1.6875 2.734375 3.96875 s -0.9375 3.953125 -2.734375 3.953125 z m 0 0"
       id="path28" />
  </symbol>
  <symbol
     id="j"
     overflow="visible">
    <path
       d="m 9.84375 -5.578125 c 0.015625 1.765625 -1.1875 2.6875 -2.5 2.6875 c -1.375 0 -2.25 -0.96875 -2.265625 -2.515625 v -7.6875 h -3.625 v 8.34375 c 0 3.046875 1.796875 4.921875 4.421875 4.921875 c 1.96875 0 3.390625 -1.015625 3.984375 -2.546875 h 0.125 v 2.375 h 3.484375 v -13.09375 h -3.625 z m 0 0"
       id="path31" />
  </symbol>
  <symbol
     id="k"
     overflow="visible">
    <path
       d="m 1.453125 0 h 3.625 v -7.40625 c 0 -1.609375 1.171875 -2.71875 2.78125 -2.71875 c 0.5 0 1.1875 0.078125 1.53125 0.203125 v -3.234375 c -0.328125 -0.078125 -0.78125 -0.125 -1.140625 -0.125 c -1.46875 0 -2.671875 0.859375 -3.140625 2.46875 h -0.140625 v -2.28125 h -3.515625 z m 0 0"
       id="path34" />
  </symbol>
  <symbol
     id="l"
     overflow="visible">
    <path
       d="m 5.078125 -7.5625 c 0.015625 -1.6875 1.015625 -2.6875 2.484375 -2.6875 c 1.453125 0 2.328125 0.953125 2.328125 2.5625 v 7.6875 h 3.625 v -8.328125 c 0 -3.0625 -1.78125 -4.9375 -4.515625 -4.9375 c -1.9375 0 -3.34375 0.953125 -3.9375 2.484375 h -0.15625 v -2.3125 h -3.453125 v 13.09375 h 3.625 z m 0 0"
       id="path37" />
  </symbol>
  <symbol
     id="m"
     overflow="visible">
    <path
       d="m 5.1875 0.25 c 1.921875 0 3.1875 -0.84375 3.828125 -2.0625 h 0.09375 v 1.8125 h 3.4375 v -8.828125 c 0 -3.125 -2.640625 -4.4375 -5.546875 -4.4375 c -3.140625 0 -5.203125 1.5 -5.703125 3.890625 l 3.359375 0.265625 c 0.25 -0.859375 1.015625 -1.5 2.328125 -1.5 c 1.234375 0 1.9375 0.625 1.9375 1.6875 v 0.0625 c 0 0.84375 -0.890625 0.953125 -3.171875 1.171875 c -2.59375 0.234375 -4.921875 1.109375 -4.921875 4.03125 c 0 2.59375 1.859375 3.90625 4.359375 3.90625 z m 1.03125 -2.515625 c -1.109375 0 -1.921875 -0.515625 -1.921875 -1.515625 c 0 -1.015625 0.84375 -1.515625 2.125 -1.703125 c 0.796875 -0.109375 2.09375 -0.296875 2.53125 -0.578125 v 1.390625 c 0 1.359375 -1.140625 2.40625 -2.734375 2.40625 z m 0 0"
       id="path40" />
  </symbol>
  <symbol
     id="n"
     overflow="visible">
    <path
       d="m 5.078125 -17.453125 h -3.625 v 17.453125 h 3.625 z m 0 0"
       id="path43" />
  </symbol>
  <path
     d="M 80.713498,75.627272 H 53.64979 c -1.358711,0 -2.460337,-1.148289 -2.460337,-2.564553 V 47.417188 c 0,-1.416264 1.101626,-2.564553 2.460337,-2.564553 h 27.063708 c 1.358711,0 2.460337,1.148289 2.460337,2.564553 v 25.645531 c 0,1.416264 -1.101626,2.564553 -2.460337,2.564553 z m 0,0"
     fill="#e29ffc"
     id="path46"
     style="stroke-width:0.313988" />
  <g
     fill="#7a36b1"
     id="g60"
     transform="matrix(0.30754214,0,0,0.32056914,46.525865,41.345158)">
    <use
       x="20.035156"
       xlink:href="#d"
       y="31.279297"
       id="use48"
       width="100%"
       height="100%" />
    <use
       x="31.449219"
       xlink:href="#e"
       y="31.279297"
       id="use50"
       width="100%"
       height="100%" />
    <use
       x="39.078125"
       xlink:href="#f"
       y="31.279297"
       id="use52"
       width="100%"
       height="100%" />
    <use
       x="44.155273"
       xlink:href="#g"
       y="31.279297"
       id="use54"
       width="100%"
       height="100%" />
    <use
       x="61.177734"
       xlink:href="#f"
       y="31.279297"
       id="use56"
       width="100%"
       height="100%" />
    <use
       x="66.254883"
       xlink:href="#e"
       y="31.279297"
       id="use58"
       width="100%"
       height="100%" />
  </g>
  <g
     fill="#7a36b1"
     id="g76"
     transform="matrix(0.30754214,0,0,0.32056914,46.525865,41.345158)">
    <use
       x="20.035156"
       xlink:href="#h"
       y="56.625"
       id="use62"
       width="100%"
       height="100%" />
    <use
       x="33.713867"
       xlink:href="#i"
       y="56.625"
       id="use64"
       width="100%"
       height="100%" />
    <use
       x="48.44043"
       xlink:href="#j"
       y="56.625"
       id="use66"
       width="100%"
       height="100%" />
    <use
       x="63.363281"
       xlink:href="#k"
       y="56.625"
       id="use68"
       width="100%"
       height="100%" />
    <use
       x="73.172852"
       xlink:href="#l"
       y="56.625"
       id="use70"
       width="100%"
       height="100%" />
    <use
       x="88.095703"
       xlink:href="#m"
       y="56.625"
       id="use72"
       width="100%"
       height="100%" />
    <use
       x="102.02148"
       xlink:href="#n"
       y="56.625"
       id="use74"
       width="100%"
       height="100%" />
  </g>
  <path
     d="m 66.112455,50.97225 h 6.036716 l 2.320982,-3.185656 1.39355,5.400838 1.857266,-2.215182 h 1.392349"
     fill="none"
     stroke="url(#a)"
     stroke-linecap="round"
     stroke-miterlimit="10"
     stroke-width="0.717222"
     id="path78"
     style="stroke:url(#a)" />
  <path
     d="m 53.345852,76.826902 c -0.06487,-0.02254 -0.263093,-0.07513 -0.44089,-0.115204 -0.425273,-0.09767 -1.244585,-0.877809 -1.444007,-1.372437 -0.0865,-0.21413 -0.156174,-0.693732 -0.156174,-1.063138 V 73.60368 l 0.553817,0.596058 c 0.374817,0.404468 0.711191,0.639886 1.039156,0.731298 0.345985,0.09642 4.524233,0.125222 14.522956,0.102683 l 14.036415,-0.03256 0.54781,-0.335596 c 0.318354,-0.194094 0.677554,-0.553483 0.855351,-0.851512 l 0.306341,-0.514663 -0.05166,0.872799 c -0.06607,1.123244 -0.443293,1.837011 -1.224162,2.315361 l -0.550212,0.3381 -13.939107,0.02129 c -7.666929,0.01252 -13.991966,0.0038 -14.055637,-0.02003 z m 0,0"
     fill="#ad65d6"
     id="path80"
     style="stroke-width:0.313988" />
  <g
     clip-path="url(#b)"
     id="g86"
     transform="matrix(0.30754214,0,0,0.32056914,46.525865,41.345158)">
    <g
       clip-path="url(#c)"
       id="g84">
      <path
         d="m 98.914062,89.917969 v 15.121091 c 0,3.33985 2.597658,6.04688 5.800778,6.04688 h 14.5 c 3.20313,0 5.79688,-2.70703 5.79688,-6.04688 V 89.917969 c 0,-3.339844 -2.59375,-6.046875 -5.79688,-6.046875 h -14.5 c -3.20312,0 -5.800778,2.707031 -5.800778,6.046875 z m 0,0"
         fill="#7a36b1"
         id="path82" />
    </g>
  </g>
  <path
     d="m 53.332638,71.755398 c 0,0.354379 -0.275106,0.641138 -0.615085,0.641138 -0.338777,0 -0.615084,-0.286759 -0.615084,-0.641138 0,-0.354379 0.276307,-0.641138 0.615084,-0.641138 0.339979,0 0.615085,0.286759 0.615085,0.641138 z m 0,0"
     fill="#ebbdc6"
     id="path88"
     style="stroke-width:0.313988" />
  <path
     d="m 53.332638,68.549707 c 0,0.354379 -0.275106,0.641138 -0.615085,0.641138 -0.338777,0 -0.615084,-0.286759 -0.615084,-0.641138 0,-0.354379 0.276307,-0.641138 0.615084,-0.641138 0.339979,0 0.615085,0.286759 0.615085,0.641138 z m 0,0"
     fill="#ebbdc6"
     id="path90"
     style="stroke-width:0.313988" />
  <path
     d="m 53.332638,65.344015 c 0,0.354379 -0.275106,0.641138 -0.615085,0.641138 -0.338777,0 -0.615084,-0.286759 -0.615084,-0.641138 0,-0.354379 0.276307,-0.641138 0.615084,-0.641138 0.339979,0 0.615085,0.286759 0.615085,0.641138 z m 0,0"
     fill="#ebbdc6"
     id="path92"
     style="stroke-width:0.313988" />
  <path
     d="m 53.332638,62.138324 c 0,0.354379 -0.275106,0.641138 -0.615085,0.641138 -0.338777,0 -0.615084,-0.286759 -0.615084,-0.641138 0,-0.354379 0.276307,-0.641139 0.615084,-0.641139 0.339979,0 0.615085,0.28676 0.615085,0.641139 z m 0,0"
     fill="#ebbdc6"
     id="path94"
     style="stroke-width:0.313988" />
  <g
     fill="#7a36b1"
     id="g112"
     transform="matrix(0.30754214,0,0,0.32056914,46.525865,41.345158)">
    <path
       d="m 24.277344,94.824219 v -0.914063 h 79.210936 v 1.828125 H 24.277344 Z m 0,0"
       id="path96" />
    <path
       d="m 24.277344,84.886719 v -0.914063 h 79.726566 v 1.828125 H 24.277344 Z m 0,0"
       id="path98" />
    <path
       d="M 24.273438,74.824219 V 73.910156 H 104 v 1.828125 H 24.273438 Z m 0,0"
       id="path100" />
    <path
       d="M 24.273438,64.914062 V 64 H 104 v 1.828125 H 24.273438 Z m 0,0"
       id="path102" />
    <path
       d="m 19.445312,66.625 c -1.03125,-0.464844 -1.488281,-1.566406 -1.03125,-2.488281 0.382813,-0.765625 0.960938,-1.15625 1.710938,-1.15625 2.359375,0 2.570312,3.367187 0.238281,3.777343 -0.246093,0.04297 -0.660156,-0.01953 -0.917969,-0.132812 z m 0,0"
       id="path104" />
    <path
       d="m 19.242188,76.550781 c -1.429688,-0.734375 -1.285157,-2.96875 0.226562,-3.46875 1.542969,-0.511719 2.960938,0.882813 2.457031,2.414063 -0.335937,1.019531 -1.703125,1.558594 -2.683593,1.054687 z m 0,0"
       id="path106" />
    <path
       d="M 19.234375,86.527344 C 18.0625,85.898438 17.878906,84.46875 18.84375,83.5 c 0.441406,-0.4375 0.609375,-0.503906 1.273438,-0.503906 0.597656,0 0.867187,0.08203 1.230468,0.390625 1.347656,1.136719 0.511719,3.417969 -1.253906,3.417969 -0.183594,0 -0.570312,-0.125 -0.859375,-0.277344 z m 0,0"
       id="path108" />
    <path
       d="M 18.945312,96.328125 C 18.40625,95.875 18.097656,95.0625 18.234375,94.449219 c 0.132813,-0.605469 0.921875,-1.363281 1.542969,-1.480469 1.34375,-0.253906 2.550781,1.097656 2.179687,2.4375 -0.34375,1.25 -2.015625,1.761719 -3.011719,0.921875 z m 0,0"
       id="path110" />
  </g>
</svg>
